<svg width="271" height="60" viewBox="0 0 271 60" fill="none" xmlns="http://www.w3.org/2000/svg">
	<path d="M13.9 4.3999L17.9 8.19989C19.4 9.59989 20.2 11.4999 20.2 13.5999C20.2 15.5999 21 17.4999 22.4 18.8999L22.9 19.3999L27.5 4.49989" fill="#6C5DD3" />
	<path d="M0.299988 17.7L5.79999 17.5C7.79999 17.4 9.79998 18.2 11.2 19.6C12.6 21 14.5 21.7 16.5 21.7H17.2L9.79999 8" fill="#6C5DD3" />
	<path d="M0.300003 36.7L4 32.7C5.4 31.2 7.3 30.3 9.3 30.3C11.3 30.3 13.1 29.4 14.5 28L15 27.5L0 23.2" fill="#6C5DD3" />
	<path d="M13.9 49.8999L13.6 44.3999C13.5 42.3999 14.2 40.3999 15.6 38.8999C16.9 37.4999 17.7 35.4999 17.6 33.5999V32.8999L4 40.5999" fill="#6C5DD3" />
	<path d="M32.9 49.4999L28.8 45.8999C27.3 44.5999 26.4 42.6999 26.3 40.5999C26.2 38.5999 25.3 36.7999 23.9 35.3999L23.4 34.8999L19.4 49.9999" fill="#6C5DD3" />
	<path d="M45.9 35.6001L40.4 36.0001C38.4 36.2001 36.4 35.5001 34.9 34.1001C33.4 32.8001 31.5 32.1001 29.5 32.2001H28.8L36.8 45.6001" fill="#6C5DD3" />
	<path d="M45 16.7L41.5 20.9C40.2 22.4 38.3 23.4 36.3 23.5C34.3 23.6 32.5 24.5 31.2 26L30.8 26.5L46 30.1" fill="#6C5DD3" />
	<path d="M30.9 4L31.4 9.5C31.6 11.5 31 13.5 29.6 15.1C28.3 16.6 27.7 18.5 27.8 20.5L27.9 21.2L41.1 12.9" fill="#6C5DD3" />
	<path d="M72.168 50V14.24H79.608V43.52H94.728V50H72.168ZM97.89 50V23.792H105.09V50H97.89ZM97.89 21.44V14.24H105.09V21.44H97.89ZM118.567 50L108.247 23.792H116.023L123.175 43.616H120.199L127.351 23.792H135.127L124.807 50H118.567ZM150.452 50.576C147.668 50.576 145.252 49.968 143.204 48.752C141.156 47.504 139.572 45.84 138.452 43.76C137.332 41.68 136.771 39.376 136.771 36.848C136.771 34.224 137.348 31.888 138.5 29.84C139.684 27.792 141.268 26.176 143.252 24.992C145.236 23.808 147.476 23.216 149.972 23.216C152.052 23.216 153.892 23.552 155.492 24.224C157.092 24.864 158.436 25.776 159.524 26.96C160.644 28.144 161.492 29.52 162.068 31.088C162.644 32.624 162.932 34.304 162.932 36.128C162.932 36.64 162.9 37.152 162.836 37.664C162.804 38.144 162.724 38.56 162.596 38.912H142.964V33.632H158.516L155.108 36.128C155.428 34.752 155.412 33.536 155.06 32.48C154.708 31.392 154.084 30.544 153.188 29.936C152.324 29.296 151.252 28.976 149.972 28.976C148.724 28.976 147.652 29.28 146.756 29.888C145.86 30.496 145.188 31.392 144.74 32.576C144.292 33.76 144.116 35.2 144.212 36.896C144.084 38.368 144.26 39.664 144.74 40.784C145.22 41.904 145.956 42.784 146.948 43.424C147.94 44.032 149.14 44.336 150.548 44.336C151.828 44.336 152.916 44.08 153.812 43.568C154.74 43.056 155.46 42.352 155.972 41.456L161.732 44.192C161.22 45.472 160.404 46.592 159.284 47.552C158.196 48.512 156.9 49.264 155.396 49.808C153.892 50.32 152.244 50.576 150.452 50.576ZM180.035 50.576C177.411 50.576 175.043 49.984 172.931 48.8C170.851 47.584 169.187 45.936 167.939 43.856C166.723 41.776 166.115 39.44 166.115 36.848C166.115 34.256 166.723 31.936 167.939 29.888C169.155 27.808 170.819 26.176 172.931 24.992C175.043 23.808 177.411 23.216 180.035 23.216C181.987 23.216 183.795 23.552 185.459 24.224C187.123 24.896 188.547 25.84 189.731 27.056C190.915 28.24 191.763 29.648 192.275 31.28L186.035 33.968C185.587 32.656 184.819 31.616 183.731 30.848C182.675 30.08 181.443 29.696 180.035 29.696C178.787 29.696 177.667 30 176.675 30.608C175.715 31.216 174.947 32.064 174.371 33.152C173.827 34.24 173.555 35.488 173.555 36.896C173.555 38.304 173.827 39.552 174.371 40.64C174.947 41.728 175.715 42.576 176.675 43.184C177.667 43.792 178.787 44.096 180.035 44.096C181.475 44.096 182.723 43.712 183.779 42.944C184.835 42.176 185.587 41.136 186.035 39.824L192.275 42.56C191.795 44.096 190.963 45.472 189.779 46.688C188.595 47.904 187.171 48.864 185.507 49.568C183.843 50.24 182.019 50.576 180.035 50.576ZM196.515 50V13.664H203.715V28.976L202.851 27.824C203.459 26.256 204.435 25.104 205.779 24.368C207.155 23.6 208.755 23.216 210.579 23.216C212.563 23.216 214.291 23.632 215.763 24.464C217.267 25.296 218.435 26.464 219.267 27.968C220.099 29.44 220.515 31.168 220.515 33.152V50H213.315V34.688C213.315 33.664 213.107 32.784 212.691 32.048C212.307 31.312 211.747 30.736 211.011 30.32C210.307 29.904 209.475 29.696 208.515 29.696C207.587 29.696 206.755 29.904 206.019 30.32C205.283 30.736 204.707 31.312 204.291 32.048C203.907 32.784 203.715 33.664 203.715 34.688V50H196.515ZM233.361 50.576C231.473 50.576 229.841 50.272 228.465 49.664C227.089 49.056 226.033 48.192 225.297 47.072C224.561 45.92 224.193 44.56 224.193 42.992C224.193 41.52 224.529 40.224 225.201 39.104C225.873 37.952 226.897 36.992 228.273 36.224C229.681 35.456 231.425 34.912 233.505 34.592L241.521 33.296V38.576L234.801 39.776C233.777 39.968 232.993 40.304 232.449 40.784C231.905 41.232 231.633 41.888 231.633 42.752C231.633 43.552 231.937 44.176 232.545 44.624C233.153 45.072 233.905 45.296 234.801 45.296C235.985 45.296 237.025 45.04 237.921 44.528C238.817 44.016 239.505 43.328 239.985 42.464C240.497 41.568 240.753 40.592 240.753 39.536V32.72C240.753 31.728 240.353 30.896 239.553 30.224C238.785 29.552 237.729 29.216 236.385 29.216C235.105 29.216 233.969 29.568 232.977 30.272C232.017 30.976 231.313 31.904 230.865 33.056L225.105 30.32C225.617 28.848 226.433 27.584 227.553 26.528C228.673 25.472 230.017 24.656 231.585 24.08C233.153 23.504 234.865 23.216 236.721 23.216C238.929 23.216 240.881 23.616 242.577 24.416C244.273 25.216 245.585 26.336 246.513 27.776C247.473 29.184 247.953 30.832 247.953 32.72V50H241.233V45.776L242.865 45.488C242.097 46.64 241.249 47.6 240.321 48.368C239.393 49.104 238.353 49.648 237.201 50C236.049 50.384 234.769 50.576 233.361 50.576ZM265.389 50.288C262.221 50.288 259.757 49.44 257.997 47.744C256.269 46.016 255.405 43.616 255.405 40.544V30.032H250.989V23.792H251.229C252.573 23.792 253.597 23.456 254.301 22.784C255.037 22.112 255.405 21.104 255.405 19.76V17.84H262.605V23.792H268.749V30.032H262.605V40.064C262.605 40.96 262.765 41.712 263.085 42.32C263.405 42.896 263.901 43.328 264.573 43.616C265.245 43.904 266.077 44.048 267.069 44.048C267.293 44.048 267.549 44.032 267.837 44C268.125 43.968 268.429 43.936 268.749 43.904V50C268.269 50.064 267.725 50.128 267.117 50.192C266.509 50.256 265.933 50.288 265.389 50.288Z" fill="black" />
</svg>
