<svg width="150" height="150" viewBox="0 0 150 150" fill="none" xmlns="http://www.w3.org/2000/svg">
<rect x="0.6" y="0.6" width="148.8" height="148.8" rx="74.4" stroke="#BE81FB" stroke-width="1.2"/>
<path d="M57 31C42.665 31 31 42.665 31 57V93C31 107.335 42.665 119 57 119H93C107.335 119 119 107.335 119 93V57C119 42.665 107.335 31 93 31H57ZM57 35H93C105.173 35 115 44.827 115 57V93C115 105.173 105.173 115 93 115H57C44.827 115 35 105.173 35 93V57C35 44.827 44.827 35 57 35ZM99 47C97.9391 47 96.9217 47.4214 96.1716 48.1716C95.4214 48.9217 95 49.9391 95 51C95 52.0609 95.4214 53.0783 96.1716 53.8284C96.9217 54.5786 97.9391 55 99 55C100.061 55 101.078 54.5786 101.828 53.8284C102.579 53.0783 103 52.0609 103 51C103 49.9391 102.579 48.9217 101.828 48.1716C101.078 47.4214 100.061 47 99 47ZM75 53C62.8734 53 53 62.8734 53 75C53 87.1266 62.8734 97 75 97C87.1266 97 97 87.1266 97 75C97 62.8734 87.1266 53 75 53ZM75 57C84.9648 57 93 65.0352 93 75C93 84.9648 84.9648 93 75 93C65.0352 93 57 84.9648 57 75C57 65.0352 65.0352 57 75 57Z" fill="#BE81FB"/>
</svg>
