<svg width="150" height="150" viewBox="0 0 150 150" fill="none" xmlns="http://www.w3.org/2000/svg">
<rect x="0.6" y="0.6" width="148.8" height="148.8" rx="74.4" stroke="#BA7AFA" stroke-width="1.2"/>
<path d="M37.1457 74.1998C63.329 62.6811 97.2123 48.6373 101.889 46.6936C114.158 41.6061 117.923 42.5811 116.046 53.8477C114.698 61.9457 110.808 88.7561 107.708 105.444C105.869 115.339 101.741 116.512 95.2519 112.231C92.1311 110.171 76.379 99.754 72.9602 97.3082C69.8394 95.079 65.5352 92.3977 70.9332 87.1165C72.854 85.2352 85.4457 73.2123 95.2561 63.854C96.5415 62.6248 94.9269 60.6061 93.4436 61.5915C80.2207 70.3602 61.8873 82.5311 59.554 84.1165C56.029 86.5102 52.6436 87.6082 46.5665 85.8623C41.9748 84.5436 37.4894 82.9707 35.7436 82.3707C29.0207 80.0623 30.6165 77.0727 37.1457 74.1998Z" fill="#B775F8"/>
</svg>
