<svg width="150" height="150" viewBox="0 0 150 150" fill="none" xmlns="http://www.w3.org/2000/svg">
<rect x="0.6" y="0.6" width="148.8" height="148.8" rx="74.4" stroke="#BE80FB" stroke-width="1.2"/>
<path d="M75 29C49.6191 29 29 49.6191 29 75C29 83.1582 31.2374 90.7718 34.9688 97.418L29.0742 118.461C28.98 118.798 28.9758 119.153 29.0619 119.492C29.148 119.831 29.3214 120.141 29.5648 120.392C29.8083 120.643 30.1133 120.826 30.4494 120.922C30.7855 121.019 31.141 121.025 31.4805 120.941L53.4219 115.504C59.8693 118.946 67.1852 121 75 121C100.381 121 121 100.381 121 75C121 49.6191 100.381 29 75 29ZM75 33C98.2191 33 117 51.7809 117 75C117 98.2191 98.2191 117 75 117C67.556 117 60.5842 115.059 54.5234 111.668C54.0802 111.42 53.5593 111.35 53.0664 111.473L33.8516 116.234L39.0039 97.8516C39.0776 97.5918 39.098 97.3198 39.0638 97.0519C39.0295 96.784 38.9414 96.5259 38.8047 96.293C35.1214 90.0472 33 82.7802 33 75C33 51.7809 51.7809 33 75 33ZM58.2852 51C57.0031 51 55.1721 51.477 53.668 53.0977C52.7645 54.0711 49 57.739 49 64.1875C49 70.9105 53.6628 76.7117 54.2266 77.457H54.2305V77.4609C54.177 77.3907 54.9461 78.5044 55.9727 79.8398C56.9993 81.1753 58.4348 82.9293 60.2383 84.8281C63.8452 88.6258 68.9166 93.0148 75.2109 95.6992C78.1096 96.9336 80.3964 97.6788 82.1289 98.2227C85.3397 99.2309 88.2641 99.0776 90.4609 98.7539C92.1053 98.5118 93.9138 97.7222 95.7031 96.5898C97.4925 95.4575 99.2462 94.0494 100.02 91.9102C100.574 90.3765 100.855 88.9592 100.957 87.793C101.008 87.2099 101.014 86.6952 100.977 86.2188C100.939 85.7423 100.979 85.3773 100.535 84.6484C99.604 83.1196 98.5495 83.0797 97.4492 82.5352C96.8379 82.2326 95.0973 81.3827 93.3516 80.5508C91.6078 79.7198 90.0978 78.9839 89.168 78.6523C88.5805 78.441 87.8631 78.1367 86.8281 78.2539C85.7931 78.3711 84.7709 79.1179 84.1758 80C83.6117 80.8361 81.3408 83.5167 80.6484 84.3047C80.6392 84.2991 80.6993 84.3268 80.4258 84.1914C79.5695 83.7676 78.5223 83.4073 76.9727 82.5898C75.423 81.7724 73.4845 80.5653 71.3633 78.6953V78.6914C68.2061 75.9119 65.9945 72.4222 65.2969 71.25C65.3439 71.1941 65.2913 71.2618 65.3906 71.1641L65.3945 71.1602C66.1076 70.4578 66.7395 69.619 67.2734 69.0039C68.0305 68.1317 68.3646 67.3629 68.7266 66.6445C69.4479 65.2129 69.0463 63.6375 68.6289 62.8086V62.8047C68.6577 62.862 68.4031 62.3003 68.1289 61.6523C67.8539 61.0025 67.5033 60.1601 67.1289 59.2617C66.3801 57.465 65.5441 55.4498 65.0469 54.2695V54.2656C64.4612 52.8754 63.6688 51.8738 62.6328 51.3906C61.5968 50.9074 60.6816 51.0448 60.6445 51.043H60.6406C59.9013 51.0089 59.0901 51 58.2852 51ZM58.2852 55C59.0562 55 59.8164 55.0094 60.4531 55.0391C61.1081 55.0717 61.0674 55.0744 60.9414 55.0156C60.8134 54.9559 60.9871 54.9366 61.3594 55.8203C61.8462 56.976 62.6863 58.9985 63.4375 60.8008C63.8131 61.7019 64.1646 62.5476 64.4453 63.2109C64.726 63.8742 64.8782 64.2446 65.0547 64.5977V64.6016L65.0586 64.6055C65.2317 64.947 65.2164 64.7283 65.1562 64.8477C64.7342 65.6853 64.6769 65.891 64.25 66.3828C63.6 67.1317 62.9369 67.9668 62.5859 68.3125C62.2789 68.6141 61.7248 69.0841 61.3789 70.0039C61.0324 70.9252 61.1941 72.1891 61.75 73.1328C62.4901 74.3892 64.9288 78.3586 68.7188 81.6953C71.1055 83.7994 73.3291 85.1919 75.1055 86.1289C76.8818 87.0659 78.3286 87.6132 78.6523 87.7734C79.4211 88.1539 80.2613 88.4493 81.2383 88.332C82.2153 88.2147 83.0576 87.622 83.5938 87.0156L83.5977 87.0117C84.3113 86.2027 86.4317 83.7815 87.4492 82.2891C87.4923 82.3043 87.4782 82.2925 87.8164 82.4141V82.418H87.8203C87.9747 82.4729 89.9086 83.3385 91.6328 84.1602C93.3571 84.9818 95.1071 85.8357 95.6758 86.1172C96.4964 86.5233 96.8842 86.7878 96.9844 86.7891C96.9911 86.965 96.998 87.1557 96.9727 87.4453C96.9025 88.2486 96.6878 89.3604 96.2578 90.5508C96.0472 91.1335 94.95 92.3353 93.5664 93.2109C92.1828 94.0866 90.4987 94.705 89.875 94.7969C87.9998 95.0732 85.7733 95.1741 83.3281 94.4062C81.6327 93.8741 79.5186 93.1852 76.7812 92.0195C71.2296 89.6519 66.5112 85.623 63.1406 82.0742C61.4553 80.2998 60.1051 78.648 59.1445 77.3984C58.1857 76.1512 57.7671 75.5021 57.418 75.043L57.4141 75.0391C56.7944 74.2196 53 68.9417 53 64.1875C53 59.156 55.337 57.1829 56.6016 55.8203C57.2654 55.105 57.9912 55 58.2852 55Z" fill="#BC7DFA"/>
</svg>
