<svg width="150" height="150" viewBox="0 0 150 150" fill="none" xmlns="http://www.w3.org/2000/svg">
<rect x="0.6" y="0.6" width="148.8" height="148.8" rx="74.4" stroke="#BA79F9" stroke-width="1.2"/>
<path d="M74.9993 38.3335C61.046 38.3335 42.9355 41.8296 42.9355 41.8296L42.89 41.8817C36.5349 42.898 31.666 48.3589 31.666 55.0002V75.0002V75.0067V95.0002V95.0067C31.6722 98.1785 32.8089 101.244 34.872 103.653C36.9351 106.062 39.7894 107.657 42.9225 108.151L42.9355 108.171C42.9355 108.171 61.046 111.673 74.9993 111.673C88.9527 111.673 107.063 108.171 107.063 108.171L107.07 108.164C110.206 107.671 113.064 106.075 115.128 103.663C117.193 101.251 118.329 98.1817 118.333 95.0067V95.0002V75.0067V75.0002V55.0002C118.328 51.8273 117.192 48.76 115.129 46.3495C113.066 43.939 110.21 42.3433 107.076 41.8491L107.063 41.8296C107.063 41.8296 88.9527 38.3335 74.9993 38.3335ZM64.9993 59.6616L91.666 75.0002L64.9993 90.3387V59.6616Z" fill="#BA79F9"/>
</svg>
